<svg width="66" height="95" viewBox="0 0 66 95" fill="none" xmlns="http://www.w3.org/2000/svg">
<path d="M57.6317 32.424C62.4373 29.2661 65.6188 23.8235 65.6188 17.6572C65.6188 7.92018 57.6946 0 47.9576 0H17.6611C7.92411 0 0 7.92018 0 17.6572C0 23.8235 3.18144 29.2661 7.98704 32.424C3.18144 35.5818 0 41.0245 0 47.1908C0 53.357 3.18144 58.7997 7.98704 61.9575C3.18144 65.1114 0 70.5541 0 76.7243C0 86.4613 7.96344 94.3815 17.7555 94.3815C27.6499 94.3815 35.7037 86.3748 35.7037 76.5316V60.2469C38.8419 63.1058 43.0104 64.848 47.5761 64.848H47.9576C57.6946 64.848 65.6188 56.9278 65.6188 47.1908C65.6188 41.0245 62.4373 35.5818 57.6317 32.424ZM35.6998 5.7848H47.9576C54.5053 5.7848 59.8339 11.1095 59.8339 17.6572C59.8339 24.2049 54.5053 29.5335 47.9576 29.5335H35.6998V5.7848ZM5.7848 17.6572C5.7848 11.1095 11.1134 5.7848 17.6611 5.7848H29.9189V29.5335H17.6611C11.1134 29.5335 5.7848 24.2049 5.7848 17.6572ZM5.7848 47.1908C5.7848 40.643 11.1134 35.3183 17.6611 35.3183H29.9189V59.0671H17.5864C11.0741 59.0238 5.7848 53.7109 5.7848 47.1908ZM29.9189 76.5316C29.9189 83.1855 24.4605 88.5967 17.7555 88.5967C11.1567 88.5967 5.7848 83.272 5.7848 76.7243C5.7848 70.1766 11.1134 64.848 17.6611 64.848H29.9189V76.5316ZM47.9576 59.0671H47.5761C41.0284 59.0671 35.7037 53.7385 35.7037 47.1908C35.7037 40.643 41.0284 35.3183 47.5761 35.3183H47.9576C54.5053 35.3183 59.8339 40.643 59.8339 47.1908C59.8339 53.7385 54.5053 59.0671 47.9576 59.0671Z" fill="white"/>
</svg>
