<svg width="107" height="121" viewBox="0 0 107 121" fill="none" xmlns="http://www.w3.org/2000/svg">
<path d="M0.249512 0L9.88749 108.167L53.1369 120.141L96.5607 108.111L106.199 0H0.249512ZM19.9304 22.1044H53.1618V35.3621H34.4715L35.6988 48.9437H53.1618V62.1702H23.5501L19.9304 22.1044ZM53.2241 62.2014H69.5221L67.977 79.4338L53.2241 83.39V62.2014ZM88.2684 101.158L53.2241 110.939V97.2457L26.0048 89.6512L24.1357 68.8302H37.4557L38.3902 79.4338L53.1992 83.3962L53.168 83.4024V97.1834L53.2241 97.171L80.3251 89.6512L83.9759 48.9437H53.2241V35.3621H85.1721L86.3994 22.1044H53.2241V8.8779H96.5358L88.2684 101.158Z" fill="white"/>
<path d="M53.2241 48.9438H83.9759L80.3251 89.6514L53.2241 97.1711V83.3901L67.9707 79.434L69.522 62.2015H53.2241V48.9438Z" fill="white"/>
<path d="M86.3994 22.1047L85.1721 35.3624H53.2241V22.1047H86.3994Z" fill="white"/>
<path d="M53.168 22.1047V35.3624H53.2241V22.1047H53.168ZM53.168 48.944V62.1705H53.2241V48.944H53.168ZM53.193 83.3965L53.1618 83.4027V97.1837L53.2241 97.1713V83.4027L53.193 83.3965Z" fill="white"/>
<path d="M53.168 22.1047V35.3624H85.1721L86.3994 22.1047H53.168ZM53.168 48.944V62.2017H69.5221L67.977 79.4342L53.2241 83.3903L53.193 83.3965L53.1618 83.4027V97.1837L53.2241 97.1713L80.3251 89.6515L83.9759 48.944H53.168Z" fill="white"/>
</svg>

