<svg width="110" height="122" viewBox="0 0 110 122" fill="none" xmlns="http://www.w3.org/2000/svg">
<path d="M0 -2L9.92596 109.36L54.4868 121.724L99.1631 109.341L109.102 -2H0ZM20.301 20.7584H54.4996V34.4186H21.5394L20.301 20.7584ZM54.551 62.0598H71.323L69.7382 79.775L54.551 83.875V62.0598ZM54.551 48.406V34.4186H73.7483L72.5036 48.406H54.551ZM22.7649 48.406H54.506V62.0662H23.9904L22.7649 48.406ZM90.6488 102.251L54.551 112.26V98.087L54.4868 98.1063L26.512 90.3362L24.5999 68.8931H38.3114L39.2867 79.7879L54.4932 83.8943H54.506V98.0999L54.551 98.087L82.5065 90.3362L88.7174 20.7584H54.551V7.09824H99.1438L90.6488 102.251Z" fill="#FDFDFD"/>
<path d="M88.7174 20.7581L82.5065 90.3358L54.5509 98.0802V83.8747L69.7382 79.7747L71.323 62.0594H54.5509V48.4057H72.5036L73.7483 34.4182H54.5509V20.7581H88.7174Z" fill="#FDFDFD"/>
<path d="M54.5509 48.4058H54.506V62.0659H54.5509V48.4058Z" fill="#FDFDFD"/>
<path d="M54.5509 20.7581H54.506V34.4182H54.5509V20.7581Z" fill="#FDFDFD"/>
<path d="M54.551 83.8816H54.4996V98.0872H54.551V83.8816Z" fill="#FDFDFD"/>
<path d="M88.7174 20.7581L82.5065 90.3358L54.5509 98.0802L54.506 98.0931V83.8875L54.5509 83.8747L69.7382 79.7747L71.323 62.0594H54.506V48.4057H72.5036L73.7483 34.4182H54.506V20.7581H88.7174Z" fill="#FDFDFD"/>
</svg>
